inDegrees=no
num_controls=7
num_derivatives=13
num_iterations=99
num_multipliers=7
num_parameters=0
num_slacks=7
num_states=26
objective=0.506945
objective_accelerations=0.053702
objective_balance=0.002558
objective_effort=0.056761
objective_height=0.382755
objective_ligament=0.011169
solver_duration=1361.509130
status=Solve_Succeeded
success=true
DataType=double
version=3
OpenSimVersion=4.5
endheader
time	/jointset/ground_pelvis/pelvis_tilt/value	/jointset/ground_pelvis/pelvis_tx/value	/jointset/ground_pelvis/pelvis_ty/value	/jointset/hip_l/hip_flexion_l/value	/jointset/hip_l/hip_adduction_l/value	/jointset/hip_l/hip_rotation_l/value	/jointset/back/lumbar_extension/value	/jointset/patellofemoral_l/patellar_flexion_l/value	/jointset/knee_l/knee_flexion_l/value	/jointset/knee_l/knee_adduction_l/value	/jointset/knee_l/knee_rotation_l/value	/jointset/ankle_l/ankle_angle_l/value	/jointset/subtalar_l/subtalar_angle_l/value	/jointset/ground_pelvis/pelvis_tilt/speed	/jointset/ground_pelvis/pelvis_tx/speed	/jointset/ground_pelvis/pelvis_ty/speed	/jointset/hip_l/hip_flexion_l/speed	/jointset/hip_l/hip_adduction_l/speed	/jointset/hip_l/hip_rotation_l/speed	/jointset/back/lumbar_extension/speed	/jointset/patellofemoral_l/patellar_flexion_l/speed	/jointset/knee_l/knee_flexion_l/speed	/jointset/knee_l/knee_adduction_l/speed	/jointset/knee_l/knee_rotation_l/speed	/jointset/ankle_l/ankle_angle_l/speed	/jointset/subtalar_l/subtalar_angle_l/speed	/forceset/tau_hip_flexion_l	/forceset/tau_hip_adduction_l	/forceset/tau_hip_rotation_l	/forceset/tau_knee_flexion_l	/forceset/tau_ankle_angle_l	/forceset/tau_subtalar_angle_l	/forceset/tau_lumbar_extension	lambda_cid13_p0	lambda_cid13_p1	lambda_cid13_p2	lambda_cid13_p3	lambda_cid13_p4	lambda_cid13_p5	lambda_cid14_p0	/jointset/ground_pelvis/pelvis_tilt/accel	/jointset/ground_pelvis/pelvis_tx/accel	/jointset/ground_pelvis/pelvis_ty/accel	/jointset/hip_l/hip_flexion_l/accel	/jointset/hip_l/hip_adduction_l/accel	/jointset/hip_l/hip_rotation_l/accel	/jointset/back/lumbar_extension/accel	/jointset/patellofemoral_l/patellar_flexion_l/accel	/jointset/knee_l/knee_flexion_l/accel	/jointset/knee_l/knee_adduction_l/accel	/jointset/knee_l/knee_rotation_l/accel	/jointset/ankle_l/ankle_angle_l/accel	/jointset/subtalar_l/subtalar_angle_l/accel	gamma_cid13_p0	gamma_cid13_p1	gamma_cid13_p2	gamma_cid13_p3	gamma_cid13_p4	gamma_cid13_p5	gamma_cid14_p0
0.5	-0.1814116542992396	-0.08653007536840385	0.7746464766747265	1.119849562697687	-0.3255632328299162	-0.07260475440102104	-0.8077026319328094	0.9516235860302749	0.9516235860289833	-0.09114037668244229	-0.1742582605859729	0.07742113857682772	-0.007460845254791288	-0.3478255256315313	-0.2350875379480772	-0.5266668157487814	2.07905991169473	-0.01722741440629514	0.5778612290382226	-0.8161590203434692	1.84928470930499	1.849284709304091	0.1667961127485972	0.0009650366592383104	0.2358879137684204	0.05378121068508245	-0.333954029418735	0.01621756688264707	-0.00564984464707266	-0.2345959314528883	0.1472120653231978	0.0445627989968844	0.3650857595217472	2.530671746061074	-20.23215248649549	3.268613014259788	-16.08969023683153	-705.5285790440324	-68.03024969916575	-8.488359741334451	0.5382857852772527	0.9232669595297764	-0.1831703857383087	-1.906754521602884	0.3763418836435298	-0.5279380560343706	2.21282050512449	-1.561412310345877	-1.56141231034586	-0.2405452591083605	-0.01854187459661189	-0.2662544599642203	0.3328335090846675	-3.187518396284113e-07	-1.954206965180644e-07	1.782066147168744e-06	1.809746419129096e-07	-3.260923507770286e-07	3.901904220726576e-07	-2.830099809141386e-07
0.51	-0.1848623569405973	-0.08883477326262973	0.769371816220726	1.140541761089378	-0.3257178018562799	-0.06685150647884447	-0.8157531268612207	0.9700356073528144	0.9700356073529701	-0.08948756216961187	-0.1742496653277247	0.07976577737886936	-0.006907902465289014	-0.3422651129939239	-0.2258534184834357	-0.528147270496328	2.059111798167627	-0.01369434398365366	0.5727325944558884	-0.7938788155936477	1.832864895786581	1.832864895786353	0.1637585305177049	0.0007569619267522488	0.2329864838120732	0.05678402013025682	-0.3420101471734426	0.01598270148816956	-0.005763124701879598	-0.2380619238326582	0.1483287144539378	0.04444824886797383	0.372426206100769	2.543790725353567	-20.09290236316696	3.141556572487757	-16.07658630559229	-711.1233043992155	-67.68543262222664	-7.729207657683928	0.5723692405171846	0.9233126405126048	-0.1128458505646135	-2.079077533323392	0.3403930933298086	-0.5139452580986469	2.244792921837291	-1.720408552726769	-1.720408552626045	-0.3366258578556185	-0.02113845889102244	-0.3100894738237253	0.2803353829783498	-3.058567382599026e-07	-1.922079579026063e-07	1.725312184432034e-06	1.729261270462841e-07	-3.071131913694728e-07	4.212176265536591e-07	-2.765360524636824e-07
0.52	-0.188255965408082	-0.09104716432209335	0.7640858786529897	1.16102643079278	-0.3258373194840615	-0.06115126872225378	-0.8235789852497503	0.9882758020041431	0.9882758020057583	-0.08786537570965956	-0.1742429904540528	0.08207980143927718	-0.00632566543718625	-0.3364066908557044	-0.2166261709956214	-0.528922238495955	2.03755417403815	-0.0102171346907991	0.5672591959229291	-0.771231712366755	1.814919375062638	1.814919375063083	0.1606705021757766	0.00058095974160994	0.2297649654415736	0.05964005840521204	-0.3500662649281671	0.01574783609368531	-0.005876404756750887	-0.2415279162124286	0.1494453635846794	0.04433369873905736	0.3797666526797759	2.553617519773145	-19.95647450807344	3.018833661082642	-16.1080663732254	-716.7952250254781	-67.40632350041135	-6.998860836916038	0.5978876853998382	0.9218925641642457	-0.0420730361544294	-2.228656642077525	0.3651696576861502	-0.596890846159405	2.286200200538794	-1.866553751452511	-1.866553751452322	-0.2506344813155394	-0.01212736512785398	-0.3302721427948348	0.3034792750408022	-2.91369652387848e-07	-1.568726529791653e-07	1.689785663891556e-06	1.703641032948281e-07	-2.859814441110041e-07	4.525388603512128e-07	-2.671912708663517e-07
0.53	-0.191589598466003	-0.09316738777728147	0.758795719719064	1.181287701322945	-0.3259222977245381	-0.05550755448723363	-0.831176658957141	1.006329111763134	1.006329111764574	-0.08627410363732023	-0.1742379629494876	0.08436013055298155	-0.005715517599885749	-0.3302756652934976	-0.2074261360282572	-0.528990725604949	2.014442953375281	-0.006790499495873157	0.5614155070848801	-0.7482580605353758	1.795501924996691	1.795501924997297	0.1575865851241807	0.0004178379249000409	0.2262565465598475	0.06236462077774853	-0.3577748900570757	0.01524641858648052	-0.005940423864528156	-0.2450748766023765	0.1505187409657159	0.04414443065940027	0.3867412837929801	2.555635723300794	-19.7872340398595	2.892025620166552	-16.04699849128049	-722.2702911094427	-67.11690596093152	-6.306685525623704	0.6273177491007893	0.917950368477342	0.02853187790214168	-2.390940494663316	0.3294091928562669	-0.5885634434650279	2.309692960979636	-2.015385938343853	-2.015385938319767	-0.3368873032780071	-0.01906411204820752	-0.367767462105901	0.2530379945036459	-2.744942669694203e-07	-1.1404212501401e-07	1.647413500400916e-06	1.676007062300125e-07	-2.63089999772624e-07	4.776329317015953e-07	-2.552229994286296e-07
0.54	-0.1948605997168136	-0.09519583260170535	0.7535084295992829	1.201310142503221	-0.3259734098645694	-0.04992436824876906	-0.8385432470889109	1.02418103796063	1.024181037961903	-0.08471359413274777	-0.1742346985675015	0.08660404733762032	-0.005078905483631315	-0.3238803294324815	-0.1982704448427743	-0.5283484756669886	1.989788304061541	-0.00344391460253126	0.5551535966133392	-0.7250145972422928	1.774642662763622	1.774642662764388	0.1545179886247315	0.0002283352239651051	0.2224824996283431	0.06493291419602797	-0.3654835151859968	0.01474500107927349	-0.006004442972357393	-0.2486218369923246	0.1515921183467548	0.04395516257974223	0.3937159149061725	2.553842426790124	-19.62156173054152	2.770625825411908	-16.03062532780843	-727.8281432369764	-66.89173333909586	-5.653569463572204	0.6507497451618384	0.9130238077878927	0.1000743732364174	-2.53734237225157	0.3491595973693452	-0.6805351728577959	2.340162492879625	-2.154916184876759	-2.15491618487688	-0.247570370886173	-0.01740354197284992	-0.3833977527506464	0.2722254841893629	-2.549765075847927e-07	-6.291900985376661e-08	1.5974674340718e-06	1.64614513158927e-07	-2.382516565373209e-07	4.958373765146819e-07	-2.403521434866446e-07
0.55	-0.1980664240519606	-0.09713302378560462	0.7482310969278102	1.221078578341778	-0.3259913582185319	-0.04440574923704067	-0.8456761785941316	1.041817364861164	1.041817364861453	-0.08318355178489223	-0.1742332924003755	0.08880900576146387	-0.004417257483350512	-0.317245871779624	-0.1891828401075406	-0.527000248441055	1.963655480791536	-0.0001610726730058653	0.5485098407240568	-0.7015438763199108	1.752395628974091	1.752395628974422	0.151488781925873	5.060700272699113e-05	0.2184710756674404	0.06736967312708488	-0.3728331248963011	0.0141223418454087	-0.006014608366811234	-0.252107804426607	0.1524412954130206	0.0436348802125135	0.4002791427356057	2.489101212229992	-19.38841857179613	2.638982409733361	-15.85594277826561	-733.0955508452626	-66.57832957484807	-5.039946479183901	0.6755667663380158	0.9044041776932126	0.1698234844789918	-2.687793888884822	0.3153460468074922	-0.6655534287858613	2.35470101433099	-2.293613783145517	-2.293613783210626	-0.330856555843968	-0.0179761138124522	-0.4157199980662526	0.2251706956374161	-2.347845087247742e-07	-1.535683932110247e-08	1.540768783263998e-06	1.6055543268926e-07	-2.136108480147208e-07	5.085213046643098e-07	-2.247881146597664e-07
0.5600000000000001	-0.2012047492123863	-0.09897978384789147	0.7429707718460381	1.240578377630727	-0.3259769782419829	-0.03895541931057541	-0.8525735680656468	1.059224418062372	1.059224418061678	-0.08168385365132863	-0.1742336672457766	0.09097270888963772	-0.00373208797414456	-0.3103804944871336	-0.1801842205202945	-0.5249469577268392	1.936060994141138	0.00302175149905092	0.5414957795618818	-0.6779061905009718	1.728787922898391	1.728787922898289	0.1484491457686864	-0.0001278672830364534	0.2142314404942888	0.06963721598108442	-0.3801827346066131	0.01349968261154532	-0.006024773761329007	-0.2555937718608892	0.1532904724792894	0.04331459784528822	0.406842370565031	2.419675156281811	-19.15842623189618	2.512378605465484	-15.72177787006031	-738.4561152962299	-66.32518212481321	-4.466127071393186	0.6969336730885736	0.8952267781902524	0.2410870708928357	-2.829675048329987	0.3291560458756274	-0.7545962274363344	2.37355547219113	-2.427050642110438	-2.427050642110063	-0.2496562625517472	-0.01755275487790062	-0.4290399952005494	0.2383822687778608	-2.137834224942867e-07	2.79321976584667e-08	1.475967031081772e-06	1.552088873412954e-07	-1.892070811473643e-07	5.145806128177872e-07	-2.083922783710163e-07
0.5700000000000001	-0.2042733622596185	-0.1007370700616398	0.7377344816163057	1.259795152783649	-0.3259311563680035	-0.0335770817206374	-0.859233862377793	1.076388775280787	1.076388775280627	-0.08021434965504796	-0.1742357252404159	0.09309299418845102	-0.003024931883202723	-0.3033087410188114	-0.1712941322986568	-0.5221947236620395	1.907061747111029	0.006124151614590807	0.5341096011547971	-0.6541413224048406	1.703868715890047	1.703868715889742	0.1454521763721661	-0.000287189539961925	0.2097945767965131	0.07176544228880746	-0.3871330986219041	0.01283260883877807	-0.005982878234461673	-0.2590247435147153	0.1539853833202168	0.04281474177391719	0.4129669226820137	2.310771351576067	-18.8425889050296	2.371009357422311	-15.45675368595842	-743.4927156892292	-65.93960921175611	-3.932067142572293	0.717279607809629	0.8827637704288207	0.309711177259375	-2.969921705859715	0.2978150023939424	-0.740119182398851	2.379654906951604	-2.556536640770883	-2.556536640801611	-0.3246341789354479	-0.01534271869011253	-0.4556503302285065	0.1955813713781618	-1.929796126871792e-07	6.651970454590687e-08	1.406591903090106e-06	1.488703108901061e-07	-1.657625205533017e-07	5.156727050087987e-07	-1.920248005040188e-07
0.58	-0.2072702610873515	-0.1024060826079163	0.7325291976478184	1.278714961031163	-0.3258549038912655	-0.02827450402178755	-0.8656561675232534	1.093297504247004	1.093297504247382	-0.07877479873288928	-0.1742394206091351	0.09516798269565452	-0.002297385817262045	-0.2960376505862468	-0.162529487025955	-0.5187457054778097	1.876667613060586	0.00910787205015968	0.5263438013455428	-0.6303083571635945	1.677662272458722	1.677662272458212	0.1424585309463168	-0.0004553421004959623	0.2051720821722388	0.07371521098087601	-0.3940834626372025	0.01216553506600987	-0.005940982707647297	-0.2624557151685415	0.1546802941611464	0.04231488570254657	0.4190914747989893	2.196192173835591	-18.52926732069863	2.234051082024856	-15.22649392691004	-748.6336466613413	-65.60953323773596	-3.436726819601043	0.7368010659371752	0.870138188402994	0.3804438947787736	-3.108652452396837	0.3054201098814307	-0.8305205078702848	2.3871749012142	-2.684497926706767	-2.684497926706772	-0.2489914684175241	-0.01931881559959504	-0.4661661805003859	0.2026907456469366	-1.724327210128459e-07	9.898428852266723e-08	1.331260750788471e-06	1.412397869556475e-07	-1.435671588267848e-07	5.102958647835757e-07	-1.756942545351177e-07
